<?xml version="1.0" encoding="UTF-8"?> <svg xmlns="http://www.w3.org/2000/svg" width="125" height="46" viewBox="0 0 125 46"> <g fill="none" fill-rule="nonzero"> <g fill="#2C2C2C"> <path d="M65.455 5.508l-1.962 1.11a2.49 2.49 0 0 0-2.223-1.22c-1.476 0-2.571 1.096-2.571 2.68 0 1.718 1.19 2.68 2.577 2.68a2.61 2.61 0 0 0 2.256-1.214l1.83 1.28c-.849 1.262-2.285 2.048-4.067 2.048-2.884 0-4.92-1.993-4.92-4.794 0-2.8 2.037-4.794 4.92-4.794 1.798 0 3.36.825 4.16 2.224zM72.883 12.7l-.709-1.941h-3.71l-.709 1.94h-2.33l3.586-9.244h2.663l3.585 9.244h-2.376zm-1.429-3.937l-1.136-3.115-1.134 3.117 2.27-.002zM82.47 12.7L78.21 7.06V12.7h-2.229V3.455h2.137l4.26 5.638V3.455h2.237v9.244zM92.792 12.7l-.708-1.941h-3.71l-.71 1.94h-2.328l3.585-9.244h2.663l3.589 9.244h-2.38zm-1.428-3.937L90.23 5.648l-1.14 3.115h2.274zM104.743 8.078c0 2.787-1.937 4.621-4.853 4.621h-4V3.455h3.992c2.926 0 4.86 1.836 4.86 4.623zm-6.627 2.582h1.723c1.737 0 2.57-1.09 2.57-2.582 0-1.492-.833-2.581-2.57-2.581h-1.723v5.163zM111.92 12.7l-.71-1.941h-3.71l-.708 1.94h-2.33l3.585-9.244h2.663l3.586 9.244h-2.377zm-1.43-3.937l-1.134-3.115-1.134 3.115h2.269zM57.137 27.54v-9.245h2.23v7.197h4.709v2.048zM64.798 27.54v-9.245h7.129v1.988h-4.906v1.597h4.614v1.982h-4.608v1.69h4.927v1.988zM80.063 27.54l-.709-1.941h-3.71l-.709 1.94h-2.329l3.585-9.244h2.663l3.585 9.245h-2.376zm-1.429-3.936L77.5 20.486l-1.134 3.118h2.268zM90.697 21.253c0 1.46-.934 2.496-2.61 2.76l2.684 3.527h-2.663l-2.462-3.46h-.324v3.46h-2.23v-9.245h4.067c2.323 0 3.538 1.136 3.538 2.958zm-5.375.97h1.805c.809 0 1.295-.31 1.295-.97 0-.66-.508-.957-1.295-.957h-1.805v1.928zM98.303 27.54l-4.26-5.639v5.639h-2.23v-9.245h2.137l4.26 5.639v-5.639h2.237v9.245zM101.972 27.54v-9.245h2.227v9.245zM112.22 27.54l-4.26-5.639v5.639h-2.23v-9.245h2.137l4.26 5.639v-5.639h2.237v9.245zM123.887 19.464l-1.59 1.552a2.62 2.62 0 0 0-1.995-.81c-1.495 0-2.57 1.11-2.57 2.716 0 1.77 1.189 2.774 2.576 2.774 1.334 0 2.104-.569 2.355-1.671h-2.276V22.32h4.495c.032.23.048.46.047.693 0 2.958-2.137 4.695-4.538 4.695-2.777 0-4.953-1.908-4.953-4.789 0-2.806 2.062-4.794 4.974-4.794 1.493-.002 2.655.493 3.475 1.338zM65.455 35.189l-1.962 1.11a2.49 2.49 0 0 0-2.223-1.22c-1.476 0-2.571 1.096-2.571 2.68 0 1.718 1.19 2.68 2.577 2.68a2.61 2.61 0 0 0 2.256-1.215l1.83 1.281c-.849 1.262-2.285 2.048-4.067 2.048-2.884 0-4.92-1.993-4.92-4.794 0-2.8 2.037-4.794 4.92-4.794 1.798 0 3.36.825 4.16 2.224zM75.55 37.757c0 2.766-2.043 4.794-4.928 4.794s-4.927-2.026-4.927-4.794 2.042-4.794 4.927-4.794 4.927 2.028 4.927 4.794zm-7.532 0c0 1.584 1.081 2.68 2.604 2.68 1.523 0 2.604-1.096 2.604-2.68s-1.081-2.68-2.604-2.68c-1.523 0-2.604 1.096-2.604 2.68zM85.471 37.757c0 2.787-1.937 4.621-4.853 4.621h-4v-9.242h4c2.918 0 4.853 1.836 4.853 4.62zm-6.623 2.581h1.723c1.737 0 2.57-1.089 2.57-2.581 0-1.493-.833-2.582-2.57-2.582h-1.723v5.163zM86.538 42.38v-9.244h7.13v1.995h-4.906v1.597h4.613v1.974h-4.603v1.69h4.927v1.988z"></path> </g> <path fill="#EF0919" d="M23.165 0C10.371 0 0 10.258 0 22.913c0 12.654 10.371 22.912 23.165 22.912 12.794 0 23.165-10.258 23.165-22.912C46.316 10.264 35.953.013 23.165 0z"></path> <path fill="#FFF" d="M31.654 22.913l4.659-4.61c.551-.545.47-1.359-.08-1.896-.552-.538-1.374-.625-1.918-.08l-4.66 4.61-4.492-4.44 4.664-4.613c.552-.545.471-1.358-.08-1.896-.552-.538-1.374-.625-1.917-.08l-4.665 4.61-4.66-4.62c-.552-.545-1.374-.465-1.917.08-.544.546-.632 1.359-.08 1.897l4.66 4.623-4.488 4.439-4.665-4.61c-.551-.545-1.373-.466-1.917.08-.543.545-.632 1.358-.08 1.896l4.66 4.61-4.67 4.61c-.552.545-.471 1.358.08 1.896.552.537 1.374.625 1.917.08l4.675-4.61 4.492 4.442-4.665 4.61c-.551.545-.47 1.359.08 1.896.552.538 1.374.625 1.918.08l4.66-4.61 4.66 4.61c.552.545 1.374.466 1.918-.08.543-.545.632-1.358.08-1.896l-4.66-4.61 4.492-4.442 4.66 4.613c.552.546 1.374.466 1.917-.08.544-.545.632-1.358.08-1.896l-4.658-4.613zm-8.487 4.442l-4.494-4.442 4.492-4.443 4.492 4.443-4.49 4.442z"></path> </g> </svg> 